%TF.GenerationSoftware,KiCad,Pcbnew,9.0.7*%
%TF.CreationDate,2026-06-06T14:45:43+02:00*%
%TF.ProjectId,soilsync,736f696c-7379-46e6-932e-6b696361645f,rev?*%
%TF.SameCoordinates,Original*%
%TF.FileFunction,Legend,Bot*%
%TF.FilePolarity,Positive*%
%FSLAX46Y46*%
G04 Gerber Fmt 4.6, Leading zero omitted, Abs format (unit mm)*
G04 Created by KiCad (PCBNEW 9.0.7) date 2026-06-06 14:45:43*
%MOMM*%
%LPD*%
G01*
G04 APERTURE LIST*
%ADD10C,0.300000*%
%ADD11C,0.150000*%
%ADD12C,0.100000*%
%ADD13C,0.120000*%
G04 APERTURE END LIST*
D10*
X262873400Y-54585082D02*
X262944828Y-54799368D01*
X262944828Y-54799368D02*
X262944828Y-55156510D01*
X262944828Y-55156510D02*
X262873400Y-55299368D01*
X262873400Y-55299368D02*
X262801971Y-55370796D01*
X262801971Y-55370796D02*
X262659114Y-55442225D01*
X262659114Y-55442225D02*
X262516257Y-55442225D01*
X262516257Y-55442225D02*
X262373400Y-55370796D01*
X262373400Y-55370796D02*
X262301971Y-55299368D01*
X262301971Y-55299368D02*
X262230542Y-55156510D01*
X262230542Y-55156510D02*
X262159114Y-54870796D01*
X262159114Y-54870796D02*
X262087685Y-54727939D01*
X262087685Y-54727939D02*
X262016257Y-54656510D01*
X262016257Y-54656510D02*
X261873400Y-54585082D01*
X261873400Y-54585082D02*
X261730542Y-54585082D01*
X261730542Y-54585082D02*
X261587685Y-54656510D01*
X261587685Y-54656510D02*
X261516257Y-54727939D01*
X261516257Y-54727939D02*
X261444828Y-54870796D01*
X261444828Y-54870796D02*
X261444828Y-55227939D01*
X261444828Y-55227939D02*
X261516257Y-55442225D01*
X262159114Y-56085081D02*
X262159114Y-56585081D01*
X262944828Y-56799367D02*
X262944828Y-56085081D01*
X262944828Y-56085081D02*
X261444828Y-56085081D01*
X261444828Y-56085081D02*
X261444828Y-56799367D01*
X262944828Y-57442224D02*
X261444828Y-57442224D01*
X261444828Y-57442224D02*
X262944828Y-58299367D01*
X262944828Y-58299367D02*
X261444828Y-58299367D01*
X262873400Y-58942225D02*
X262944828Y-59156511D01*
X262944828Y-59156511D02*
X262944828Y-59513653D01*
X262944828Y-59513653D02*
X262873400Y-59656511D01*
X262873400Y-59656511D02*
X262801971Y-59727939D01*
X262801971Y-59727939D02*
X262659114Y-59799368D01*
X262659114Y-59799368D02*
X262516257Y-59799368D01*
X262516257Y-59799368D02*
X262373400Y-59727939D01*
X262373400Y-59727939D02*
X262301971Y-59656511D01*
X262301971Y-59656511D02*
X262230542Y-59513653D01*
X262230542Y-59513653D02*
X262159114Y-59227939D01*
X262159114Y-59227939D02*
X262087685Y-59085082D01*
X262087685Y-59085082D02*
X262016257Y-59013653D01*
X262016257Y-59013653D02*
X261873400Y-58942225D01*
X261873400Y-58942225D02*
X261730542Y-58942225D01*
X261730542Y-58942225D02*
X261587685Y-59013653D01*
X261587685Y-59013653D02*
X261516257Y-59085082D01*
X261516257Y-59085082D02*
X261444828Y-59227939D01*
X261444828Y-59227939D02*
X261444828Y-59585082D01*
X261444828Y-59585082D02*
X261516257Y-59799368D01*
X261444828Y-60727939D02*
X261444828Y-61013653D01*
X261444828Y-61013653D02*
X261516257Y-61156510D01*
X261516257Y-61156510D02*
X261659114Y-61299367D01*
X261659114Y-61299367D02*
X261944828Y-61370796D01*
X261944828Y-61370796D02*
X262444828Y-61370796D01*
X262444828Y-61370796D02*
X262730542Y-61299367D01*
X262730542Y-61299367D02*
X262873400Y-61156510D01*
X262873400Y-61156510D02*
X262944828Y-61013653D01*
X262944828Y-61013653D02*
X262944828Y-60727939D01*
X262944828Y-60727939D02*
X262873400Y-60585082D01*
X262873400Y-60585082D02*
X262730542Y-60442224D01*
X262730542Y-60442224D02*
X262444828Y-60370796D01*
X262444828Y-60370796D02*
X261944828Y-60370796D01*
X261944828Y-60370796D02*
X261659114Y-60442224D01*
X261659114Y-60442224D02*
X261516257Y-60585082D01*
X261516257Y-60585082D02*
X261444828Y-60727939D01*
X262944828Y-62870796D02*
X262230542Y-62370796D01*
X262944828Y-62013653D02*
X261444828Y-62013653D01*
X261444828Y-62013653D02*
X261444828Y-62585082D01*
X261444828Y-62585082D02*
X261516257Y-62727939D01*
X261516257Y-62727939D02*
X261587685Y-62799368D01*
X261587685Y-62799368D02*
X261730542Y-62870796D01*
X261730542Y-62870796D02*
X261944828Y-62870796D01*
X261944828Y-62870796D02*
X262087685Y-62799368D01*
X262087685Y-62799368D02*
X262159114Y-62727939D01*
X262159114Y-62727939D02*
X262230542Y-62585082D01*
X262230542Y-62585082D02*
X262230542Y-62013653D01*
X263087685Y-63156511D02*
X263087685Y-64299368D01*
X261444828Y-64513653D02*
X261444828Y-65513653D01*
X261444828Y-65513653D02*
X262944828Y-64870796D01*
X262873400Y-69317082D02*
X262944828Y-69531368D01*
X262944828Y-69531368D02*
X262944828Y-69888510D01*
X262944828Y-69888510D02*
X262873400Y-70031368D01*
X262873400Y-70031368D02*
X262801971Y-70102796D01*
X262801971Y-70102796D02*
X262659114Y-70174225D01*
X262659114Y-70174225D02*
X262516257Y-70174225D01*
X262516257Y-70174225D02*
X262373400Y-70102796D01*
X262373400Y-70102796D02*
X262301971Y-70031368D01*
X262301971Y-70031368D02*
X262230542Y-69888510D01*
X262230542Y-69888510D02*
X262159114Y-69602796D01*
X262159114Y-69602796D02*
X262087685Y-69459939D01*
X262087685Y-69459939D02*
X262016257Y-69388510D01*
X262016257Y-69388510D02*
X261873400Y-69317082D01*
X261873400Y-69317082D02*
X261730542Y-69317082D01*
X261730542Y-69317082D02*
X261587685Y-69388510D01*
X261587685Y-69388510D02*
X261516257Y-69459939D01*
X261516257Y-69459939D02*
X261444828Y-69602796D01*
X261444828Y-69602796D02*
X261444828Y-69959939D01*
X261444828Y-69959939D02*
X261516257Y-70174225D01*
X262159114Y-70817081D02*
X262159114Y-71317081D01*
X262944828Y-71531367D02*
X262944828Y-70817081D01*
X262944828Y-70817081D02*
X261444828Y-70817081D01*
X261444828Y-70817081D02*
X261444828Y-71531367D01*
X262944828Y-72174224D02*
X261444828Y-72174224D01*
X261444828Y-72174224D02*
X262944828Y-73031367D01*
X262944828Y-73031367D02*
X261444828Y-73031367D01*
X262873400Y-73674225D02*
X262944828Y-73888511D01*
X262944828Y-73888511D02*
X262944828Y-74245653D01*
X262944828Y-74245653D02*
X262873400Y-74388511D01*
X262873400Y-74388511D02*
X262801971Y-74459939D01*
X262801971Y-74459939D02*
X262659114Y-74531368D01*
X262659114Y-74531368D02*
X262516257Y-74531368D01*
X262516257Y-74531368D02*
X262373400Y-74459939D01*
X262373400Y-74459939D02*
X262301971Y-74388511D01*
X262301971Y-74388511D02*
X262230542Y-74245653D01*
X262230542Y-74245653D02*
X262159114Y-73959939D01*
X262159114Y-73959939D02*
X262087685Y-73817082D01*
X262087685Y-73817082D02*
X262016257Y-73745653D01*
X262016257Y-73745653D02*
X261873400Y-73674225D01*
X261873400Y-73674225D02*
X261730542Y-73674225D01*
X261730542Y-73674225D02*
X261587685Y-73745653D01*
X261587685Y-73745653D02*
X261516257Y-73817082D01*
X261516257Y-73817082D02*
X261444828Y-73959939D01*
X261444828Y-73959939D02*
X261444828Y-74317082D01*
X261444828Y-74317082D02*
X261516257Y-74531368D01*
X261444828Y-75459939D02*
X261444828Y-75745653D01*
X261444828Y-75745653D02*
X261516257Y-75888510D01*
X261516257Y-75888510D02*
X261659114Y-76031367D01*
X261659114Y-76031367D02*
X261944828Y-76102796D01*
X261944828Y-76102796D02*
X262444828Y-76102796D01*
X262444828Y-76102796D02*
X262730542Y-76031367D01*
X262730542Y-76031367D02*
X262873400Y-75888510D01*
X262873400Y-75888510D02*
X262944828Y-75745653D01*
X262944828Y-75745653D02*
X262944828Y-75459939D01*
X262944828Y-75459939D02*
X262873400Y-75317082D01*
X262873400Y-75317082D02*
X262730542Y-75174224D01*
X262730542Y-75174224D02*
X262444828Y-75102796D01*
X262444828Y-75102796D02*
X261944828Y-75102796D01*
X261944828Y-75102796D02*
X261659114Y-75174224D01*
X261659114Y-75174224D02*
X261516257Y-75317082D01*
X261516257Y-75317082D02*
X261444828Y-75459939D01*
X262944828Y-77602796D02*
X262230542Y-77102796D01*
X262944828Y-76745653D02*
X261444828Y-76745653D01*
X261444828Y-76745653D02*
X261444828Y-77317082D01*
X261444828Y-77317082D02*
X261516257Y-77459939D01*
X261516257Y-77459939D02*
X261587685Y-77531368D01*
X261587685Y-77531368D02*
X261730542Y-77602796D01*
X261730542Y-77602796D02*
X261944828Y-77602796D01*
X261944828Y-77602796D02*
X262087685Y-77531368D01*
X262087685Y-77531368D02*
X262159114Y-77459939D01*
X262159114Y-77459939D02*
X262230542Y-77317082D01*
X262230542Y-77317082D02*
X262230542Y-76745653D01*
X263087685Y-77888511D02*
X263087685Y-79031368D01*
X262087685Y-79602796D02*
X262016257Y-79459939D01*
X262016257Y-79459939D02*
X261944828Y-79388510D01*
X261944828Y-79388510D02*
X261801971Y-79317082D01*
X261801971Y-79317082D02*
X261730542Y-79317082D01*
X261730542Y-79317082D02*
X261587685Y-79388510D01*
X261587685Y-79388510D02*
X261516257Y-79459939D01*
X261516257Y-79459939D02*
X261444828Y-79602796D01*
X261444828Y-79602796D02*
X261444828Y-79888510D01*
X261444828Y-79888510D02*
X261516257Y-80031368D01*
X261516257Y-80031368D02*
X261587685Y-80102796D01*
X261587685Y-80102796D02*
X261730542Y-80174225D01*
X261730542Y-80174225D02*
X261801971Y-80174225D01*
X261801971Y-80174225D02*
X261944828Y-80102796D01*
X261944828Y-80102796D02*
X262016257Y-80031368D01*
X262016257Y-80031368D02*
X262087685Y-79888510D01*
X262087685Y-79888510D02*
X262087685Y-79602796D01*
X262087685Y-79602796D02*
X262159114Y-79459939D01*
X262159114Y-79459939D02*
X262230542Y-79388510D01*
X262230542Y-79388510D02*
X262373400Y-79317082D01*
X262373400Y-79317082D02*
X262659114Y-79317082D01*
X262659114Y-79317082D02*
X262801971Y-79388510D01*
X262801971Y-79388510D02*
X262873400Y-79459939D01*
X262873400Y-79459939D02*
X262944828Y-79602796D01*
X262944828Y-79602796D02*
X262944828Y-79888510D01*
X262944828Y-79888510D02*
X262873400Y-80031368D01*
X262873400Y-80031368D02*
X262801971Y-80102796D01*
X262801971Y-80102796D02*
X262659114Y-80174225D01*
X262659114Y-80174225D02*
X262373400Y-80174225D01*
X262373400Y-80174225D02*
X262230542Y-80102796D01*
X262230542Y-80102796D02*
X262159114Y-80031368D01*
X262159114Y-80031368D02*
X262087685Y-79888510D01*
X262873400Y-39345082D02*
X262944828Y-39559368D01*
X262944828Y-39559368D02*
X262944828Y-39916510D01*
X262944828Y-39916510D02*
X262873400Y-40059368D01*
X262873400Y-40059368D02*
X262801971Y-40130796D01*
X262801971Y-40130796D02*
X262659114Y-40202225D01*
X262659114Y-40202225D02*
X262516257Y-40202225D01*
X262516257Y-40202225D02*
X262373400Y-40130796D01*
X262373400Y-40130796D02*
X262301971Y-40059368D01*
X262301971Y-40059368D02*
X262230542Y-39916510D01*
X262230542Y-39916510D02*
X262159114Y-39630796D01*
X262159114Y-39630796D02*
X262087685Y-39487939D01*
X262087685Y-39487939D02*
X262016257Y-39416510D01*
X262016257Y-39416510D02*
X261873400Y-39345082D01*
X261873400Y-39345082D02*
X261730542Y-39345082D01*
X261730542Y-39345082D02*
X261587685Y-39416510D01*
X261587685Y-39416510D02*
X261516257Y-39487939D01*
X261516257Y-39487939D02*
X261444828Y-39630796D01*
X261444828Y-39630796D02*
X261444828Y-39987939D01*
X261444828Y-39987939D02*
X261516257Y-40202225D01*
X262159114Y-40845081D02*
X262159114Y-41345081D01*
X262944828Y-41559367D02*
X262944828Y-40845081D01*
X262944828Y-40845081D02*
X261444828Y-40845081D01*
X261444828Y-40845081D02*
X261444828Y-41559367D01*
X262944828Y-42202224D02*
X261444828Y-42202224D01*
X261444828Y-42202224D02*
X262944828Y-43059367D01*
X262944828Y-43059367D02*
X261444828Y-43059367D01*
X262873400Y-43702225D02*
X262944828Y-43916511D01*
X262944828Y-43916511D02*
X262944828Y-44273653D01*
X262944828Y-44273653D02*
X262873400Y-44416511D01*
X262873400Y-44416511D02*
X262801971Y-44487939D01*
X262801971Y-44487939D02*
X262659114Y-44559368D01*
X262659114Y-44559368D02*
X262516257Y-44559368D01*
X262516257Y-44559368D02*
X262373400Y-44487939D01*
X262373400Y-44487939D02*
X262301971Y-44416511D01*
X262301971Y-44416511D02*
X262230542Y-44273653D01*
X262230542Y-44273653D02*
X262159114Y-43987939D01*
X262159114Y-43987939D02*
X262087685Y-43845082D01*
X262087685Y-43845082D02*
X262016257Y-43773653D01*
X262016257Y-43773653D02*
X261873400Y-43702225D01*
X261873400Y-43702225D02*
X261730542Y-43702225D01*
X261730542Y-43702225D02*
X261587685Y-43773653D01*
X261587685Y-43773653D02*
X261516257Y-43845082D01*
X261516257Y-43845082D02*
X261444828Y-43987939D01*
X261444828Y-43987939D02*
X261444828Y-44345082D01*
X261444828Y-44345082D02*
X261516257Y-44559368D01*
X261444828Y-45487939D02*
X261444828Y-45773653D01*
X261444828Y-45773653D02*
X261516257Y-45916510D01*
X261516257Y-45916510D02*
X261659114Y-46059367D01*
X261659114Y-46059367D02*
X261944828Y-46130796D01*
X261944828Y-46130796D02*
X262444828Y-46130796D01*
X262444828Y-46130796D02*
X262730542Y-46059367D01*
X262730542Y-46059367D02*
X262873400Y-45916510D01*
X262873400Y-45916510D02*
X262944828Y-45773653D01*
X262944828Y-45773653D02*
X262944828Y-45487939D01*
X262944828Y-45487939D02*
X262873400Y-45345082D01*
X262873400Y-45345082D02*
X262730542Y-45202224D01*
X262730542Y-45202224D02*
X262444828Y-45130796D01*
X262444828Y-45130796D02*
X261944828Y-45130796D01*
X261944828Y-45130796D02*
X261659114Y-45202224D01*
X261659114Y-45202224D02*
X261516257Y-45345082D01*
X261516257Y-45345082D02*
X261444828Y-45487939D01*
X262944828Y-47630796D02*
X262230542Y-47130796D01*
X262944828Y-46773653D02*
X261444828Y-46773653D01*
X261444828Y-46773653D02*
X261444828Y-47345082D01*
X261444828Y-47345082D02*
X261516257Y-47487939D01*
X261516257Y-47487939D02*
X261587685Y-47559368D01*
X261587685Y-47559368D02*
X261730542Y-47630796D01*
X261730542Y-47630796D02*
X261944828Y-47630796D01*
X261944828Y-47630796D02*
X262087685Y-47559368D01*
X262087685Y-47559368D02*
X262159114Y-47487939D01*
X262159114Y-47487939D02*
X262230542Y-47345082D01*
X262230542Y-47345082D02*
X262230542Y-46773653D01*
X263087685Y-47916511D02*
X263087685Y-49059368D01*
X261444828Y-50059368D02*
X261444828Y-49773653D01*
X261444828Y-49773653D02*
X261516257Y-49630796D01*
X261516257Y-49630796D02*
X261587685Y-49559368D01*
X261587685Y-49559368D02*
X261801971Y-49416510D01*
X261801971Y-49416510D02*
X262087685Y-49345082D01*
X262087685Y-49345082D02*
X262659114Y-49345082D01*
X262659114Y-49345082D02*
X262801971Y-49416510D01*
X262801971Y-49416510D02*
X262873400Y-49487939D01*
X262873400Y-49487939D02*
X262944828Y-49630796D01*
X262944828Y-49630796D02*
X262944828Y-49916510D01*
X262944828Y-49916510D02*
X262873400Y-50059368D01*
X262873400Y-50059368D02*
X262801971Y-50130796D01*
X262801971Y-50130796D02*
X262659114Y-50202225D01*
X262659114Y-50202225D02*
X262301971Y-50202225D01*
X262301971Y-50202225D02*
X262159114Y-50130796D01*
X262159114Y-50130796D02*
X262087685Y-50059368D01*
X262087685Y-50059368D02*
X262016257Y-49916510D01*
X262016257Y-49916510D02*
X262016257Y-49630796D01*
X262016257Y-49630796D02*
X262087685Y-49487939D01*
X262087685Y-49487939D02*
X262159114Y-49416510D01*
X262159114Y-49416510D02*
X262301971Y-49345082D01*
X262873400Y-99289082D02*
X262944828Y-99503368D01*
X262944828Y-99503368D02*
X262944828Y-99860510D01*
X262944828Y-99860510D02*
X262873400Y-100003368D01*
X262873400Y-100003368D02*
X262801971Y-100074796D01*
X262801971Y-100074796D02*
X262659114Y-100146225D01*
X262659114Y-100146225D02*
X262516257Y-100146225D01*
X262516257Y-100146225D02*
X262373400Y-100074796D01*
X262373400Y-100074796D02*
X262301971Y-100003368D01*
X262301971Y-100003368D02*
X262230542Y-99860510D01*
X262230542Y-99860510D02*
X262159114Y-99574796D01*
X262159114Y-99574796D02*
X262087685Y-99431939D01*
X262087685Y-99431939D02*
X262016257Y-99360510D01*
X262016257Y-99360510D02*
X261873400Y-99289082D01*
X261873400Y-99289082D02*
X261730542Y-99289082D01*
X261730542Y-99289082D02*
X261587685Y-99360510D01*
X261587685Y-99360510D02*
X261516257Y-99431939D01*
X261516257Y-99431939D02*
X261444828Y-99574796D01*
X261444828Y-99574796D02*
X261444828Y-99931939D01*
X261444828Y-99931939D02*
X261516257Y-100146225D01*
X262159114Y-100789081D02*
X262159114Y-101289081D01*
X262944828Y-101503367D02*
X262944828Y-100789081D01*
X262944828Y-100789081D02*
X261444828Y-100789081D01*
X261444828Y-100789081D02*
X261444828Y-101503367D01*
X262944828Y-102146224D02*
X261444828Y-102146224D01*
X261444828Y-102146224D02*
X262944828Y-103003367D01*
X262944828Y-103003367D02*
X261444828Y-103003367D01*
X262873400Y-103646225D02*
X262944828Y-103860511D01*
X262944828Y-103860511D02*
X262944828Y-104217653D01*
X262944828Y-104217653D02*
X262873400Y-104360511D01*
X262873400Y-104360511D02*
X262801971Y-104431939D01*
X262801971Y-104431939D02*
X262659114Y-104503368D01*
X262659114Y-104503368D02*
X262516257Y-104503368D01*
X262516257Y-104503368D02*
X262373400Y-104431939D01*
X262373400Y-104431939D02*
X262301971Y-104360511D01*
X262301971Y-104360511D02*
X262230542Y-104217653D01*
X262230542Y-104217653D02*
X262159114Y-103931939D01*
X262159114Y-103931939D02*
X262087685Y-103789082D01*
X262087685Y-103789082D02*
X262016257Y-103717653D01*
X262016257Y-103717653D02*
X261873400Y-103646225D01*
X261873400Y-103646225D02*
X261730542Y-103646225D01*
X261730542Y-103646225D02*
X261587685Y-103717653D01*
X261587685Y-103717653D02*
X261516257Y-103789082D01*
X261516257Y-103789082D02*
X261444828Y-103931939D01*
X261444828Y-103931939D02*
X261444828Y-104289082D01*
X261444828Y-104289082D02*
X261516257Y-104503368D01*
X261444828Y-105431939D02*
X261444828Y-105717653D01*
X261444828Y-105717653D02*
X261516257Y-105860510D01*
X261516257Y-105860510D02*
X261659114Y-106003367D01*
X261659114Y-106003367D02*
X261944828Y-106074796D01*
X261944828Y-106074796D02*
X262444828Y-106074796D01*
X262444828Y-106074796D02*
X262730542Y-106003367D01*
X262730542Y-106003367D02*
X262873400Y-105860510D01*
X262873400Y-105860510D02*
X262944828Y-105717653D01*
X262944828Y-105717653D02*
X262944828Y-105431939D01*
X262944828Y-105431939D02*
X262873400Y-105289082D01*
X262873400Y-105289082D02*
X262730542Y-105146224D01*
X262730542Y-105146224D02*
X262444828Y-105074796D01*
X262444828Y-105074796D02*
X261944828Y-105074796D01*
X261944828Y-105074796D02*
X261659114Y-105146224D01*
X261659114Y-105146224D02*
X261516257Y-105289082D01*
X261516257Y-105289082D02*
X261444828Y-105431939D01*
X262944828Y-107574796D02*
X262230542Y-107074796D01*
X262944828Y-106717653D02*
X261444828Y-106717653D01*
X261444828Y-106717653D02*
X261444828Y-107289082D01*
X261444828Y-107289082D02*
X261516257Y-107431939D01*
X261516257Y-107431939D02*
X261587685Y-107503368D01*
X261587685Y-107503368D02*
X261730542Y-107574796D01*
X261730542Y-107574796D02*
X261944828Y-107574796D01*
X261944828Y-107574796D02*
X262087685Y-107503368D01*
X262087685Y-107503368D02*
X262159114Y-107431939D01*
X262159114Y-107431939D02*
X262230542Y-107289082D01*
X262230542Y-107289082D02*
X262230542Y-106717653D01*
X263087685Y-107860511D02*
X263087685Y-109003368D01*
X262944828Y-110146225D02*
X262944828Y-109289082D01*
X262944828Y-109717653D02*
X261444828Y-109717653D01*
X261444828Y-109717653D02*
X261659114Y-109574796D01*
X261659114Y-109574796D02*
X261801971Y-109431939D01*
X261801971Y-109431939D02*
X261873400Y-109289082D01*
X261444828Y-111074796D02*
X261444828Y-111217653D01*
X261444828Y-111217653D02*
X261516257Y-111360510D01*
X261516257Y-111360510D02*
X261587685Y-111431939D01*
X261587685Y-111431939D02*
X261730542Y-111503367D01*
X261730542Y-111503367D02*
X262016257Y-111574796D01*
X262016257Y-111574796D02*
X262373400Y-111574796D01*
X262373400Y-111574796D02*
X262659114Y-111503367D01*
X262659114Y-111503367D02*
X262801971Y-111431939D01*
X262801971Y-111431939D02*
X262873400Y-111360510D01*
X262873400Y-111360510D02*
X262944828Y-111217653D01*
X262944828Y-111217653D02*
X262944828Y-111074796D01*
X262944828Y-111074796D02*
X262873400Y-110931939D01*
X262873400Y-110931939D02*
X262801971Y-110860510D01*
X262801971Y-110860510D02*
X262659114Y-110789081D01*
X262659114Y-110789081D02*
X262373400Y-110717653D01*
X262373400Y-110717653D02*
X262016257Y-110717653D01*
X262016257Y-110717653D02*
X261730542Y-110789081D01*
X261730542Y-110789081D02*
X261587685Y-110860510D01*
X261587685Y-110860510D02*
X261516257Y-110931939D01*
X261516257Y-110931939D02*
X261444828Y-111074796D01*
X262873400Y-84303082D02*
X262944828Y-84517368D01*
X262944828Y-84517368D02*
X262944828Y-84874510D01*
X262944828Y-84874510D02*
X262873400Y-85017368D01*
X262873400Y-85017368D02*
X262801971Y-85088796D01*
X262801971Y-85088796D02*
X262659114Y-85160225D01*
X262659114Y-85160225D02*
X262516257Y-85160225D01*
X262516257Y-85160225D02*
X262373400Y-85088796D01*
X262373400Y-85088796D02*
X262301971Y-85017368D01*
X262301971Y-85017368D02*
X262230542Y-84874510D01*
X262230542Y-84874510D02*
X262159114Y-84588796D01*
X262159114Y-84588796D02*
X262087685Y-84445939D01*
X262087685Y-84445939D02*
X262016257Y-84374510D01*
X262016257Y-84374510D02*
X261873400Y-84303082D01*
X261873400Y-84303082D02*
X261730542Y-84303082D01*
X261730542Y-84303082D02*
X261587685Y-84374510D01*
X261587685Y-84374510D02*
X261516257Y-84445939D01*
X261516257Y-84445939D02*
X261444828Y-84588796D01*
X261444828Y-84588796D02*
X261444828Y-84945939D01*
X261444828Y-84945939D02*
X261516257Y-85160225D01*
X262159114Y-85803081D02*
X262159114Y-86303081D01*
X262944828Y-86517367D02*
X262944828Y-85803081D01*
X262944828Y-85803081D02*
X261444828Y-85803081D01*
X261444828Y-85803081D02*
X261444828Y-86517367D01*
X262944828Y-87160224D02*
X261444828Y-87160224D01*
X261444828Y-87160224D02*
X262944828Y-88017367D01*
X262944828Y-88017367D02*
X261444828Y-88017367D01*
X262873400Y-88660225D02*
X262944828Y-88874511D01*
X262944828Y-88874511D02*
X262944828Y-89231653D01*
X262944828Y-89231653D02*
X262873400Y-89374511D01*
X262873400Y-89374511D02*
X262801971Y-89445939D01*
X262801971Y-89445939D02*
X262659114Y-89517368D01*
X262659114Y-89517368D02*
X262516257Y-89517368D01*
X262516257Y-89517368D02*
X262373400Y-89445939D01*
X262373400Y-89445939D02*
X262301971Y-89374511D01*
X262301971Y-89374511D02*
X262230542Y-89231653D01*
X262230542Y-89231653D02*
X262159114Y-88945939D01*
X262159114Y-88945939D02*
X262087685Y-88803082D01*
X262087685Y-88803082D02*
X262016257Y-88731653D01*
X262016257Y-88731653D02*
X261873400Y-88660225D01*
X261873400Y-88660225D02*
X261730542Y-88660225D01*
X261730542Y-88660225D02*
X261587685Y-88731653D01*
X261587685Y-88731653D02*
X261516257Y-88803082D01*
X261516257Y-88803082D02*
X261444828Y-88945939D01*
X261444828Y-88945939D02*
X261444828Y-89303082D01*
X261444828Y-89303082D02*
X261516257Y-89517368D01*
X261444828Y-90445939D02*
X261444828Y-90731653D01*
X261444828Y-90731653D02*
X261516257Y-90874510D01*
X261516257Y-90874510D02*
X261659114Y-91017367D01*
X261659114Y-91017367D02*
X261944828Y-91088796D01*
X261944828Y-91088796D02*
X262444828Y-91088796D01*
X262444828Y-91088796D02*
X262730542Y-91017367D01*
X262730542Y-91017367D02*
X262873400Y-90874510D01*
X262873400Y-90874510D02*
X262944828Y-90731653D01*
X262944828Y-90731653D02*
X262944828Y-90445939D01*
X262944828Y-90445939D02*
X262873400Y-90303082D01*
X262873400Y-90303082D02*
X262730542Y-90160224D01*
X262730542Y-90160224D02*
X262444828Y-90088796D01*
X262444828Y-90088796D02*
X261944828Y-90088796D01*
X261944828Y-90088796D02*
X261659114Y-90160224D01*
X261659114Y-90160224D02*
X261516257Y-90303082D01*
X261516257Y-90303082D02*
X261444828Y-90445939D01*
X262944828Y-92588796D02*
X262230542Y-92088796D01*
X262944828Y-91731653D02*
X261444828Y-91731653D01*
X261444828Y-91731653D02*
X261444828Y-92303082D01*
X261444828Y-92303082D02*
X261516257Y-92445939D01*
X261516257Y-92445939D02*
X261587685Y-92517368D01*
X261587685Y-92517368D02*
X261730542Y-92588796D01*
X261730542Y-92588796D02*
X261944828Y-92588796D01*
X261944828Y-92588796D02*
X262087685Y-92517368D01*
X262087685Y-92517368D02*
X262159114Y-92445939D01*
X262159114Y-92445939D02*
X262230542Y-92303082D01*
X262230542Y-92303082D02*
X262230542Y-91731653D01*
X263087685Y-92874511D02*
X263087685Y-94017368D01*
X262944828Y-94445939D02*
X262944828Y-94731653D01*
X262944828Y-94731653D02*
X262873400Y-94874510D01*
X262873400Y-94874510D02*
X262801971Y-94945939D01*
X262801971Y-94945939D02*
X262587685Y-95088796D01*
X262587685Y-95088796D02*
X262301971Y-95160225D01*
X262301971Y-95160225D02*
X261730542Y-95160225D01*
X261730542Y-95160225D02*
X261587685Y-95088796D01*
X261587685Y-95088796D02*
X261516257Y-95017368D01*
X261516257Y-95017368D02*
X261444828Y-94874510D01*
X261444828Y-94874510D02*
X261444828Y-94588796D01*
X261444828Y-94588796D02*
X261516257Y-94445939D01*
X261516257Y-94445939D02*
X261587685Y-94374510D01*
X261587685Y-94374510D02*
X261730542Y-94303082D01*
X261730542Y-94303082D02*
X262087685Y-94303082D01*
X262087685Y-94303082D02*
X262230542Y-94374510D01*
X262230542Y-94374510D02*
X262301971Y-94445939D01*
X262301971Y-94445939D02*
X262373400Y-94588796D01*
X262373400Y-94588796D02*
X262373400Y-94874510D01*
X262373400Y-94874510D02*
X262301971Y-95017368D01*
X262301971Y-95017368D02*
X262230542Y-95088796D01*
X262230542Y-95088796D02*
X262087685Y-95160225D01*
D11*
X204106819Y-54356095D02*
X204916342Y-54356095D01*
X204916342Y-54356095D02*
X205011580Y-54403714D01*
X205011580Y-54403714D02*
X205059200Y-54451333D01*
X205059200Y-54451333D02*
X205106819Y-54546571D01*
X205106819Y-54546571D02*
X205106819Y-54737047D01*
X205106819Y-54737047D02*
X205059200Y-54832285D01*
X205059200Y-54832285D02*
X205011580Y-54879904D01*
X205011580Y-54879904D02*
X204916342Y-54927523D01*
X204916342Y-54927523D02*
X204106819Y-54927523D01*
X204440152Y-55832285D02*
X205106819Y-55832285D01*
X204059200Y-55594190D02*
X204773485Y-55356095D01*
X204773485Y-55356095D02*
X204773485Y-55975142D01*
X221874094Y-93636819D02*
X221874094Y-92636819D01*
X221874094Y-92636819D02*
X221635999Y-92636819D01*
X221635999Y-92636819D02*
X221493142Y-92684438D01*
X221493142Y-92684438D02*
X221397904Y-92779676D01*
X221397904Y-92779676D02*
X221350285Y-92874914D01*
X221350285Y-92874914D02*
X221302666Y-93065390D01*
X221302666Y-93065390D02*
X221302666Y-93208247D01*
X221302666Y-93208247D02*
X221350285Y-93398723D01*
X221350285Y-93398723D02*
X221397904Y-93493961D01*
X221397904Y-93493961D02*
X221493142Y-93589200D01*
X221493142Y-93589200D02*
X221635999Y-93636819D01*
X221635999Y-93636819D02*
X221874094Y-93636819D01*
X220921713Y-92732057D02*
X220874094Y-92684438D01*
X220874094Y-92684438D02*
X220778856Y-92636819D01*
X220778856Y-92636819D02*
X220540761Y-92636819D01*
X220540761Y-92636819D02*
X220445523Y-92684438D01*
X220445523Y-92684438D02*
X220397904Y-92732057D01*
X220397904Y-92732057D02*
X220350285Y-92827295D01*
X220350285Y-92827295D02*
X220350285Y-92922533D01*
X220350285Y-92922533D02*
X220397904Y-93065390D01*
X220397904Y-93065390D02*
X220969332Y-93636819D01*
X220969332Y-93636819D02*
X220350285Y-93636819D01*
X219709904Y-89414819D02*
X219709904Y-90224342D01*
X219709904Y-90224342D02*
X219662285Y-90319580D01*
X219662285Y-90319580D02*
X219614666Y-90367200D01*
X219614666Y-90367200D02*
X219519428Y-90414819D01*
X219519428Y-90414819D02*
X219328952Y-90414819D01*
X219328952Y-90414819D02*
X219233714Y-90367200D01*
X219233714Y-90367200D02*
X219186095Y-90319580D01*
X219186095Y-90319580D02*
X219138476Y-90224342D01*
X219138476Y-90224342D02*
X219138476Y-89414819D01*
X218138476Y-90414819D02*
X218709904Y-90414819D01*
X218424190Y-90414819D02*
X218424190Y-89414819D01*
X218424190Y-89414819D02*
X218519428Y-89557676D01*
X218519428Y-89557676D02*
X218614666Y-89652914D01*
X218614666Y-89652914D02*
X218709904Y-89700533D01*
X188956057Y-46920761D02*
X188908438Y-46825523D01*
X188908438Y-46825523D02*
X188813200Y-46730285D01*
X188813200Y-46730285D02*
X188670342Y-46587428D01*
X188670342Y-46587428D02*
X188622723Y-46492190D01*
X188622723Y-46492190D02*
X188622723Y-46396952D01*
X188860819Y-46444571D02*
X188813200Y-46349333D01*
X188813200Y-46349333D02*
X188717961Y-46254095D01*
X188717961Y-46254095D02*
X188527485Y-46206476D01*
X188527485Y-46206476D02*
X188194152Y-46206476D01*
X188194152Y-46206476D02*
X188003676Y-46254095D01*
X188003676Y-46254095D02*
X187908438Y-46349333D01*
X187908438Y-46349333D02*
X187860819Y-46444571D01*
X187860819Y-46444571D02*
X187860819Y-46635047D01*
X187860819Y-46635047D02*
X187908438Y-46730285D01*
X187908438Y-46730285D02*
X188003676Y-46825523D01*
X188003676Y-46825523D02*
X188194152Y-46873142D01*
X188194152Y-46873142D02*
X188527485Y-46873142D01*
X188527485Y-46873142D02*
X188717961Y-46825523D01*
X188717961Y-46825523D02*
X188813200Y-46730285D01*
X188813200Y-46730285D02*
X188860819Y-46635047D01*
X188860819Y-46635047D02*
X188860819Y-46444571D01*
X188860819Y-47825523D02*
X188860819Y-47254095D01*
X188860819Y-47539809D02*
X187860819Y-47539809D01*
X187860819Y-47539809D02*
X188003676Y-47444571D01*
X188003676Y-47444571D02*
X188098914Y-47349333D01*
X188098914Y-47349333D02*
X188146533Y-47254095D01*
X251213857Y-53083619D02*
X251547190Y-52607428D01*
X251785285Y-53083619D02*
X251785285Y-52083619D01*
X251785285Y-52083619D02*
X251404333Y-52083619D01*
X251404333Y-52083619D02*
X251309095Y-52131238D01*
X251309095Y-52131238D02*
X251261476Y-52178857D01*
X251261476Y-52178857D02*
X251213857Y-52274095D01*
X251213857Y-52274095D02*
X251213857Y-52416952D01*
X251213857Y-52416952D02*
X251261476Y-52512190D01*
X251261476Y-52512190D02*
X251309095Y-52559809D01*
X251309095Y-52559809D02*
X251404333Y-52607428D01*
X251404333Y-52607428D02*
X251785285Y-52607428D01*
X250261476Y-53083619D02*
X250832904Y-53083619D01*
X250547190Y-53083619D02*
X250547190Y-52083619D01*
X250547190Y-52083619D02*
X250642428Y-52226476D01*
X250642428Y-52226476D02*
X250737666Y-52321714D01*
X250737666Y-52321714D02*
X250832904Y-52369333D01*
X249404333Y-52416952D02*
X249404333Y-53083619D01*
X249642428Y-52036000D02*
X249880523Y-52750285D01*
X249880523Y-52750285D02*
X249261476Y-52750285D01*
X250985257Y-88440419D02*
X251318590Y-87964228D01*
X251556685Y-88440419D02*
X251556685Y-87440419D01*
X251556685Y-87440419D02*
X251175733Y-87440419D01*
X251175733Y-87440419D02*
X251080495Y-87488038D01*
X251080495Y-87488038D02*
X251032876Y-87535657D01*
X251032876Y-87535657D02*
X250985257Y-87630895D01*
X250985257Y-87630895D02*
X250985257Y-87773752D01*
X250985257Y-87773752D02*
X251032876Y-87868990D01*
X251032876Y-87868990D02*
X251080495Y-87916609D01*
X251080495Y-87916609D02*
X251175733Y-87964228D01*
X251175733Y-87964228D02*
X251556685Y-87964228D01*
X250032876Y-88440419D02*
X250604304Y-88440419D01*
X250318590Y-88440419D02*
X250318590Y-87440419D01*
X250318590Y-87440419D02*
X250413828Y-87583276D01*
X250413828Y-87583276D02*
X250509066Y-87678514D01*
X250509066Y-87678514D02*
X250604304Y-87726133D01*
X249699542Y-87440419D02*
X249032876Y-87440419D01*
X249032876Y-87440419D02*
X249461447Y-88440419D01*
X251340857Y-44295219D02*
X251674190Y-43819028D01*
X251912285Y-44295219D02*
X251912285Y-43295219D01*
X251912285Y-43295219D02*
X251531333Y-43295219D01*
X251531333Y-43295219D02*
X251436095Y-43342838D01*
X251436095Y-43342838D02*
X251388476Y-43390457D01*
X251388476Y-43390457D02*
X251340857Y-43485695D01*
X251340857Y-43485695D02*
X251340857Y-43628552D01*
X251340857Y-43628552D02*
X251388476Y-43723790D01*
X251388476Y-43723790D02*
X251436095Y-43771409D01*
X251436095Y-43771409D02*
X251531333Y-43819028D01*
X251531333Y-43819028D02*
X251912285Y-43819028D01*
X250388476Y-44295219D02*
X250959904Y-44295219D01*
X250674190Y-44295219D02*
X250674190Y-43295219D01*
X250674190Y-43295219D02*
X250769428Y-43438076D01*
X250769428Y-43438076D02*
X250864666Y-43533314D01*
X250864666Y-43533314D02*
X250959904Y-43580933D01*
X249436095Y-44295219D02*
X250007523Y-44295219D01*
X249721809Y-44295219D02*
X249721809Y-43295219D01*
X249721809Y-43295219D02*
X249817047Y-43438076D01*
X249817047Y-43438076D02*
X249912285Y-43533314D01*
X249912285Y-43533314D02*
X250007523Y-43580933D01*
X250985257Y-95958819D02*
X251318590Y-95482628D01*
X251556685Y-95958819D02*
X251556685Y-94958819D01*
X251556685Y-94958819D02*
X251175733Y-94958819D01*
X251175733Y-94958819D02*
X251080495Y-95006438D01*
X251080495Y-95006438D02*
X251032876Y-95054057D01*
X251032876Y-95054057D02*
X250985257Y-95149295D01*
X250985257Y-95149295D02*
X250985257Y-95292152D01*
X250985257Y-95292152D02*
X251032876Y-95387390D01*
X251032876Y-95387390D02*
X251080495Y-95435009D01*
X251080495Y-95435009D02*
X251175733Y-95482628D01*
X251175733Y-95482628D02*
X251556685Y-95482628D01*
X250604304Y-95054057D02*
X250556685Y-95006438D01*
X250556685Y-95006438D02*
X250461447Y-94958819D01*
X250461447Y-94958819D02*
X250223352Y-94958819D01*
X250223352Y-94958819D02*
X250128114Y-95006438D01*
X250128114Y-95006438D02*
X250080495Y-95054057D01*
X250080495Y-95054057D02*
X250032876Y-95149295D01*
X250032876Y-95149295D02*
X250032876Y-95244533D01*
X250032876Y-95244533D02*
X250080495Y-95387390D01*
X250080495Y-95387390D02*
X250651923Y-95958819D01*
X250651923Y-95958819D02*
X250032876Y-95958819D01*
X249413828Y-94958819D02*
X249318590Y-94958819D01*
X249318590Y-94958819D02*
X249223352Y-95006438D01*
X249223352Y-95006438D02*
X249175733Y-95054057D01*
X249175733Y-95054057D02*
X249128114Y-95149295D01*
X249128114Y-95149295D02*
X249080495Y-95339771D01*
X249080495Y-95339771D02*
X249080495Y-95577866D01*
X249080495Y-95577866D02*
X249128114Y-95768342D01*
X249128114Y-95768342D02*
X249175733Y-95863580D01*
X249175733Y-95863580D02*
X249223352Y-95911200D01*
X249223352Y-95911200D02*
X249318590Y-95958819D01*
X249318590Y-95958819D02*
X249413828Y-95958819D01*
X249413828Y-95958819D02*
X249509066Y-95911200D01*
X249509066Y-95911200D02*
X249556685Y-95863580D01*
X249556685Y-95863580D02*
X249604304Y-95768342D01*
X249604304Y-95768342D02*
X249651923Y-95577866D01*
X249651923Y-95577866D02*
X249651923Y-95339771D01*
X249651923Y-95339771D02*
X249604304Y-95149295D01*
X249604304Y-95149295D02*
X249556685Y-95054057D01*
X249556685Y-95054057D02*
X249509066Y-95006438D01*
X249509066Y-95006438D02*
X249413828Y-94958819D01*
X251188457Y-67510819D02*
X251521790Y-67034628D01*
X251759885Y-67510819D02*
X251759885Y-66510819D01*
X251759885Y-66510819D02*
X251378933Y-66510819D01*
X251378933Y-66510819D02*
X251283695Y-66558438D01*
X251283695Y-66558438D02*
X251236076Y-66606057D01*
X251236076Y-66606057D02*
X251188457Y-66701295D01*
X251188457Y-66701295D02*
X251188457Y-66844152D01*
X251188457Y-66844152D02*
X251236076Y-66939390D01*
X251236076Y-66939390D02*
X251283695Y-66987009D01*
X251283695Y-66987009D02*
X251378933Y-67034628D01*
X251378933Y-67034628D02*
X251759885Y-67034628D01*
X250236076Y-67510819D02*
X250807504Y-67510819D01*
X250521790Y-67510819D02*
X250521790Y-66510819D01*
X250521790Y-66510819D02*
X250617028Y-66653676D01*
X250617028Y-66653676D02*
X250712266Y-66748914D01*
X250712266Y-66748914D02*
X250807504Y-66796533D01*
X249378933Y-66510819D02*
X249569409Y-66510819D01*
X249569409Y-66510819D02*
X249664647Y-66558438D01*
X249664647Y-66558438D02*
X249712266Y-66606057D01*
X249712266Y-66606057D02*
X249807504Y-66748914D01*
X249807504Y-66748914D02*
X249855123Y-66939390D01*
X249855123Y-66939390D02*
X249855123Y-67320342D01*
X249855123Y-67320342D02*
X249807504Y-67415580D01*
X249807504Y-67415580D02*
X249759885Y-67463200D01*
X249759885Y-67463200D02*
X249664647Y-67510819D01*
X249664647Y-67510819D02*
X249474171Y-67510819D01*
X249474171Y-67510819D02*
X249378933Y-67463200D01*
X249378933Y-67463200D02*
X249331314Y-67415580D01*
X249331314Y-67415580D02*
X249283695Y-67320342D01*
X249283695Y-67320342D02*
X249283695Y-67082247D01*
X249283695Y-67082247D02*
X249331314Y-66987009D01*
X249331314Y-66987009D02*
X249378933Y-66939390D01*
X249378933Y-66939390D02*
X249474171Y-66891771D01*
X249474171Y-66891771D02*
X249664647Y-66891771D01*
X249664647Y-66891771D02*
X249759885Y-66939390D01*
X249759885Y-66939390D02*
X249807504Y-66987009D01*
X249807504Y-66987009D02*
X249855123Y-67082247D01*
X251086857Y-103121619D02*
X251420190Y-102645428D01*
X251658285Y-103121619D02*
X251658285Y-102121619D01*
X251658285Y-102121619D02*
X251277333Y-102121619D01*
X251277333Y-102121619D02*
X251182095Y-102169238D01*
X251182095Y-102169238D02*
X251134476Y-102216857D01*
X251134476Y-102216857D02*
X251086857Y-102312095D01*
X251086857Y-102312095D02*
X251086857Y-102454952D01*
X251086857Y-102454952D02*
X251134476Y-102550190D01*
X251134476Y-102550190D02*
X251182095Y-102597809D01*
X251182095Y-102597809D02*
X251277333Y-102645428D01*
X251277333Y-102645428D02*
X251658285Y-102645428D01*
X250134476Y-103121619D02*
X250705904Y-103121619D01*
X250420190Y-103121619D02*
X250420190Y-102121619D01*
X250420190Y-102121619D02*
X250515428Y-102264476D01*
X250515428Y-102264476D02*
X250610666Y-102359714D01*
X250610666Y-102359714D02*
X250705904Y-102407333D01*
X249658285Y-103121619D02*
X249467809Y-103121619D01*
X249467809Y-103121619D02*
X249372571Y-103074000D01*
X249372571Y-103074000D02*
X249324952Y-103026380D01*
X249324952Y-103026380D02*
X249229714Y-102883523D01*
X249229714Y-102883523D02*
X249182095Y-102693047D01*
X249182095Y-102693047D02*
X249182095Y-102312095D01*
X249182095Y-102312095D02*
X249229714Y-102216857D01*
X249229714Y-102216857D02*
X249277333Y-102169238D01*
X249277333Y-102169238D02*
X249372571Y-102121619D01*
X249372571Y-102121619D02*
X249563047Y-102121619D01*
X249563047Y-102121619D02*
X249658285Y-102169238D01*
X249658285Y-102169238D02*
X249705904Y-102216857D01*
X249705904Y-102216857D02*
X249753523Y-102312095D01*
X249753523Y-102312095D02*
X249753523Y-102550190D01*
X249753523Y-102550190D02*
X249705904Y-102645428D01*
X249705904Y-102645428D02*
X249658285Y-102693047D01*
X249658285Y-102693047D02*
X249563047Y-102740666D01*
X249563047Y-102740666D02*
X249372571Y-102740666D01*
X249372571Y-102740666D02*
X249277333Y-102693047D01*
X249277333Y-102693047D02*
X249229714Y-102645428D01*
X249229714Y-102645428D02*
X249182095Y-102550190D01*
X251290057Y-58874819D02*
X251623390Y-58398628D01*
X251861485Y-58874819D02*
X251861485Y-57874819D01*
X251861485Y-57874819D02*
X251480533Y-57874819D01*
X251480533Y-57874819D02*
X251385295Y-57922438D01*
X251385295Y-57922438D02*
X251337676Y-57970057D01*
X251337676Y-57970057D02*
X251290057Y-58065295D01*
X251290057Y-58065295D02*
X251290057Y-58208152D01*
X251290057Y-58208152D02*
X251337676Y-58303390D01*
X251337676Y-58303390D02*
X251385295Y-58351009D01*
X251385295Y-58351009D02*
X251480533Y-58398628D01*
X251480533Y-58398628D02*
X251861485Y-58398628D01*
X250337676Y-58874819D02*
X250909104Y-58874819D01*
X250623390Y-58874819D02*
X250623390Y-57874819D01*
X250623390Y-57874819D02*
X250718628Y-58017676D01*
X250718628Y-58017676D02*
X250813866Y-58112914D01*
X250813866Y-58112914D02*
X250909104Y-58160533D01*
X250004342Y-57874819D02*
X249385295Y-57874819D01*
X249385295Y-57874819D02*
X249718628Y-58255771D01*
X249718628Y-58255771D02*
X249575771Y-58255771D01*
X249575771Y-58255771D02*
X249480533Y-58303390D01*
X249480533Y-58303390D02*
X249432914Y-58351009D01*
X249432914Y-58351009D02*
X249385295Y-58446247D01*
X249385295Y-58446247D02*
X249385295Y-58684342D01*
X249385295Y-58684342D02*
X249432914Y-58779580D01*
X249432914Y-58779580D02*
X249480533Y-58827200D01*
X249480533Y-58827200D02*
X249575771Y-58874819D01*
X249575771Y-58874819D02*
X249861485Y-58874819D01*
X249861485Y-58874819D02*
X249956723Y-58827200D01*
X249956723Y-58827200D02*
X250004342Y-58779580D01*
X251340857Y-38301819D02*
X251674190Y-37825628D01*
X251912285Y-38301819D02*
X251912285Y-37301819D01*
X251912285Y-37301819D02*
X251531333Y-37301819D01*
X251531333Y-37301819D02*
X251436095Y-37349438D01*
X251436095Y-37349438D02*
X251388476Y-37397057D01*
X251388476Y-37397057D02*
X251340857Y-37492295D01*
X251340857Y-37492295D02*
X251340857Y-37635152D01*
X251340857Y-37635152D02*
X251388476Y-37730390D01*
X251388476Y-37730390D02*
X251436095Y-37778009D01*
X251436095Y-37778009D02*
X251531333Y-37825628D01*
X251531333Y-37825628D02*
X251912285Y-37825628D01*
X250388476Y-38301819D02*
X250959904Y-38301819D01*
X250674190Y-38301819D02*
X250674190Y-37301819D01*
X250674190Y-37301819D02*
X250769428Y-37444676D01*
X250769428Y-37444676D02*
X250864666Y-37539914D01*
X250864666Y-37539914D02*
X250959904Y-37587533D01*
X250007523Y-37397057D02*
X249959904Y-37349438D01*
X249959904Y-37349438D02*
X249864666Y-37301819D01*
X249864666Y-37301819D02*
X249626571Y-37301819D01*
X249626571Y-37301819D02*
X249531333Y-37349438D01*
X249531333Y-37349438D02*
X249483714Y-37397057D01*
X249483714Y-37397057D02*
X249436095Y-37492295D01*
X249436095Y-37492295D02*
X249436095Y-37587533D01*
X249436095Y-37587533D02*
X249483714Y-37730390D01*
X249483714Y-37730390D02*
X250055142Y-38301819D01*
X250055142Y-38301819D02*
X249436095Y-38301819D01*
X250985257Y-81633219D02*
X251318590Y-81157028D01*
X251556685Y-81633219D02*
X251556685Y-80633219D01*
X251556685Y-80633219D02*
X251175733Y-80633219D01*
X251175733Y-80633219D02*
X251080495Y-80680838D01*
X251080495Y-80680838D02*
X251032876Y-80728457D01*
X251032876Y-80728457D02*
X250985257Y-80823695D01*
X250985257Y-80823695D02*
X250985257Y-80966552D01*
X250985257Y-80966552D02*
X251032876Y-81061790D01*
X251032876Y-81061790D02*
X251080495Y-81109409D01*
X251080495Y-81109409D02*
X251175733Y-81157028D01*
X251175733Y-81157028D02*
X251556685Y-81157028D01*
X250032876Y-81633219D02*
X250604304Y-81633219D01*
X250318590Y-81633219D02*
X250318590Y-80633219D01*
X250318590Y-80633219D02*
X250413828Y-80776076D01*
X250413828Y-80776076D02*
X250509066Y-80871314D01*
X250509066Y-80871314D02*
X250604304Y-80918933D01*
X249461447Y-81061790D02*
X249556685Y-81014171D01*
X249556685Y-81014171D02*
X249604304Y-80966552D01*
X249604304Y-80966552D02*
X249651923Y-80871314D01*
X249651923Y-80871314D02*
X249651923Y-80823695D01*
X249651923Y-80823695D02*
X249604304Y-80728457D01*
X249604304Y-80728457D02*
X249556685Y-80680838D01*
X249556685Y-80680838D02*
X249461447Y-80633219D01*
X249461447Y-80633219D02*
X249270971Y-80633219D01*
X249270971Y-80633219D02*
X249175733Y-80680838D01*
X249175733Y-80680838D02*
X249128114Y-80728457D01*
X249128114Y-80728457D02*
X249080495Y-80823695D01*
X249080495Y-80823695D02*
X249080495Y-80871314D01*
X249080495Y-80871314D02*
X249128114Y-80966552D01*
X249128114Y-80966552D02*
X249175733Y-81014171D01*
X249175733Y-81014171D02*
X249270971Y-81061790D01*
X249270971Y-81061790D02*
X249461447Y-81061790D01*
X249461447Y-81061790D02*
X249556685Y-81109409D01*
X249556685Y-81109409D02*
X249604304Y-81157028D01*
X249604304Y-81157028D02*
X249651923Y-81252266D01*
X249651923Y-81252266D02*
X249651923Y-81442742D01*
X249651923Y-81442742D02*
X249604304Y-81537980D01*
X249604304Y-81537980D02*
X249556685Y-81585600D01*
X249556685Y-81585600D02*
X249461447Y-81633219D01*
X249461447Y-81633219D02*
X249270971Y-81633219D01*
X249270971Y-81633219D02*
X249175733Y-81585600D01*
X249175733Y-81585600D02*
X249128114Y-81537980D01*
X249128114Y-81537980D02*
X249080495Y-81442742D01*
X249080495Y-81442742D02*
X249080495Y-81252266D01*
X249080495Y-81252266D02*
X249128114Y-81157028D01*
X249128114Y-81157028D02*
X249175733Y-81109409D01*
X249175733Y-81109409D02*
X249270971Y-81061790D01*
X251188457Y-73759219D02*
X251521790Y-73283028D01*
X251759885Y-73759219D02*
X251759885Y-72759219D01*
X251759885Y-72759219D02*
X251378933Y-72759219D01*
X251378933Y-72759219D02*
X251283695Y-72806838D01*
X251283695Y-72806838D02*
X251236076Y-72854457D01*
X251236076Y-72854457D02*
X251188457Y-72949695D01*
X251188457Y-72949695D02*
X251188457Y-73092552D01*
X251188457Y-73092552D02*
X251236076Y-73187790D01*
X251236076Y-73187790D02*
X251283695Y-73235409D01*
X251283695Y-73235409D02*
X251378933Y-73283028D01*
X251378933Y-73283028D02*
X251759885Y-73283028D01*
X250236076Y-73759219D02*
X250807504Y-73759219D01*
X250521790Y-73759219D02*
X250521790Y-72759219D01*
X250521790Y-72759219D02*
X250617028Y-72902076D01*
X250617028Y-72902076D02*
X250712266Y-72997314D01*
X250712266Y-72997314D02*
X250807504Y-73044933D01*
X249331314Y-72759219D02*
X249807504Y-72759219D01*
X249807504Y-72759219D02*
X249855123Y-73235409D01*
X249855123Y-73235409D02*
X249807504Y-73187790D01*
X249807504Y-73187790D02*
X249712266Y-73140171D01*
X249712266Y-73140171D02*
X249474171Y-73140171D01*
X249474171Y-73140171D02*
X249378933Y-73187790D01*
X249378933Y-73187790D02*
X249331314Y-73235409D01*
X249331314Y-73235409D02*
X249283695Y-73330647D01*
X249283695Y-73330647D02*
X249283695Y-73568742D01*
X249283695Y-73568742D02*
X249331314Y-73663980D01*
X249331314Y-73663980D02*
X249378933Y-73711600D01*
X249378933Y-73711600D02*
X249474171Y-73759219D01*
X249474171Y-73759219D02*
X249712266Y-73759219D01*
X249712266Y-73759219D02*
X249807504Y-73711600D01*
X249807504Y-73711600D02*
X249855123Y-73663980D01*
D12*
X187974080Y-100093404D02*
X187164557Y-100093404D01*
X187164557Y-100093404D02*
X187069319Y-100045785D01*
X187069319Y-100045785D02*
X187021700Y-99998166D01*
X187021700Y-99998166D02*
X186974080Y-99902928D01*
X186974080Y-99902928D02*
X186974080Y-99712452D01*
X186974080Y-99712452D02*
X187021700Y-99617214D01*
X187021700Y-99617214D02*
X187069319Y-99569595D01*
X187069319Y-99569595D02*
X187164557Y-99521976D01*
X187164557Y-99521976D02*
X187974080Y-99521976D01*
X187878842Y-99093404D02*
X187926461Y-99045785D01*
X187926461Y-99045785D02*
X187974080Y-98950547D01*
X187974080Y-98950547D02*
X187974080Y-98712452D01*
X187974080Y-98712452D02*
X187926461Y-98617214D01*
X187926461Y-98617214D02*
X187878842Y-98569595D01*
X187878842Y-98569595D02*
X187783604Y-98521976D01*
X187783604Y-98521976D02*
X187688366Y-98521976D01*
X187688366Y-98521976D02*
X187545509Y-98569595D01*
X187545509Y-98569595D02*
X186974080Y-99141023D01*
X186974080Y-99141023D02*
X186974080Y-98521976D01*
D13*
%TO.C,U4*%
X196742000Y-53208000D02*
X198002000Y-53208000D01*
X196742000Y-56968000D02*
X196742000Y-53208000D01*
X203562000Y-53208000D02*
X202302000Y-53208000D01*
X203562000Y-56968000D02*
X203562000Y-53208000D01*
X203792000Y-58488000D02*
X203462000Y-58248000D01*
X203792000Y-58008000D01*
X203792000Y-58488000D01*
G36*
X203792000Y-58488000D02*
G01*
X203462000Y-58248000D01*
X203792000Y-58008000D01*
X203792000Y-58488000D01*
G37*
%TO.C,D2*%
X226046000Y-100532000D02*
X217536000Y-100532000D01*
X226046000Y-100532000D02*
X226046000Y-94032000D01*
X226046000Y-94032000D02*
X217536000Y-94032000D01*
%TO.C,U1*%
X217948000Y-88960000D02*
G75*
G02*
X219948000Y-88960000I1000000J0D01*
G01*
X212888000Y-88960000D02*
X212888000Y-38040000D01*
X212888000Y-38040000D02*
X225008000Y-38040000D01*
X217948000Y-88960000D02*
X212888000Y-88960000D01*
X225008000Y-88960000D02*
X219948000Y-88960000D01*
X225008000Y-38040000D02*
X225008000Y-88960000D01*
%TO.C,Q1*%
X189246000Y-41906000D02*
X189246000Y-52126000D01*
X190626000Y-41906000D02*
X190626000Y-52126000D01*
X193866000Y-41906000D02*
X189246000Y-41906000D01*
X189246000Y-45166000D02*
X190626000Y-45166000D01*
X189246000Y-48866000D02*
X190626000Y-48866000D01*
X189246000Y-52126000D02*
X193866000Y-52126000D01*
X193866000Y-52126000D02*
X193866000Y-41906000D01*
%TO.C,R14*%
X250798064Y-54964000D02*
X250343936Y-54964000D01*
X250798064Y-53494000D02*
X250343936Y-53494000D01*
%TO.C,R17*%
X250544064Y-86968000D02*
X250089936Y-86968000D01*
X250544064Y-85498000D02*
X250089936Y-85498000D01*
%TO.C,R11*%
X250925064Y-42772000D02*
X250470936Y-42772000D01*
X250925064Y-41302000D02*
X250470936Y-41302000D01*
%TO.C,R20*%
X250544064Y-97890000D02*
X250089936Y-97890000D01*
X250544064Y-96420000D02*
X250089936Y-96420000D01*
%TO.C,R16*%
X250774564Y-69696000D02*
X250320436Y-69696000D01*
X250774564Y-68226000D02*
X250320436Y-68226000D01*
%TO.C,R19*%
X250544064Y-101700000D02*
X250089936Y-101700000D01*
X250544064Y-100230000D02*
X250089936Y-100230000D01*
%TO.C,R13*%
X250798064Y-57504000D02*
X250343936Y-57504000D01*
X250798064Y-56034000D02*
X250343936Y-56034000D01*
%TO.C,R12*%
X250925064Y-40232000D02*
X250470936Y-40232000D01*
X250925064Y-38762000D02*
X250470936Y-38762000D01*
%TO.C,R18*%
X250567564Y-83666000D02*
X250113436Y-83666000D01*
X250567564Y-82196000D02*
X250113436Y-82196000D01*
%TO.C,R15*%
X250774564Y-72236000D02*
X250320436Y-72236000D01*
X250774564Y-70766000D02*
X250320436Y-70766000D01*
%TO.C,U2*%
D12*
X194801500Y-121211500D02*
X174001500Y-121211500D01*
X174001500Y-77411500D01*
X194801500Y-77411500D01*
X194801500Y-121211500D01*
%TD*%
M02*
