M48
; DRILL file {KiCad 9.0.7} date 2026-06-06T14:45:52+0200
; FORMAT={-:-/ absolute / metric / decimal}
; #@! TF.CreationDate,2026-06-06T14:45:52+02:00
; #@! TF.GenerationSoftware,Kicad,Pcbnew,9.0.7
; #@! TF.FileFunction,Plated,1,2,PTH
FMAT,2
METRIC
; #@! TA.AperFunction,Plated,PTH,ViaDrill
T1C0.300
; #@! TA.AperFunction,Plated,PTH,ViaDrill
T2C0.500
; #@! TA.AperFunction,Plated,PTH,ComponentDrill
T3C0.800
; #@! TA.AperFunction,Plated,PTH,ComponentDrill
T4C1.000
; #@! TA.AperFunction,Plated,PTH,ComponentDrill
T5C1.100
; #@! TA.AperFunction,Plated,PTH,ComponentDrill
T6C1.200
%
G90
G05
T1
X170.18Y-29.21
X170.18Y-34.29
X170.18Y-39.37
X170.18Y-54.61
X170.18Y-59.69
X170.18Y-64.77
X170.18Y-69.85
X170.18Y-74.93
X170.18Y-80.01
X170.18Y-85.09
X170.18Y-90.17
X170.18Y-95.25
X170.18Y-100.33
X170.18Y-105.41
X170.18Y-110.49
X170.18Y-115.57
X170.18Y-120.65
X172.72Y-123.19
X175.26Y-29.21
X175.26Y-81.28
X175.26Y-116.84
X177.8Y-78.74
X177.8Y-81.28
X177.8Y-116.84
X177.8Y-119.38
X177.8Y-123.19
X182.88Y-29.21
X182.88Y-123.19
X185.42Y-53.34
X185.42Y-55.88
X187.96Y-58.42
X187.96Y-62.23
X187.96Y-66.04
X187.96Y-69.85
X187.96Y-73.66
X187.96Y-123.19
X190.5Y-29.21
X190.5Y-53.34
X191.77Y-55.88
X193.04Y-62.23
X193.04Y-66.04
X193.04Y-69.85
X193.04Y-73.66
X193.04Y-116.84
X193.04Y-123.19
X194.31Y-55.88
X194.31Y-60.96
X195.58Y-29.21
X195.58Y-36.83
X195.58Y-41.91
X195.58Y-46.99
X195.58Y-52.07
X195.58Y-77.47
X196.85Y-60.96
X198.12Y-54.61
X198.12Y-80.01
X198.12Y-82.55
X198.12Y-116.84
X198.12Y-123.19
X200.66Y-34.29
X200.66Y-82.55
X200.66Y-85.09
X200.66Y-87.63
X201.93Y-55.88
X202.641Y-69.596
X203.19Y-80.003
X203.2Y-29.21
X203.2Y-41.91
X203.2Y-46.99
X203.2Y-49.53
X203.2Y-55.88
X203.2Y-60.96
X203.2Y-74.93
X203.2Y-77.47
X203.2Y-85.09
X203.2Y-87.63
X203.2Y-91.44
X203.2Y-116.84
X203.2Y-123.19
X204.47Y-58.42
X204.47Y-59.69
X205.74Y-34.29
X205.74Y-41.91
X205.74Y-62.23
X205.74Y-66.04
X205.74Y-80.01
X205.74Y-82.55
X205.74Y-88.9
X207.01Y-91.44
X207.162Y-76.454
X208.28Y-29.21
X208.28Y-41.91
X208.28Y-44.45
X208.28Y-48.26
X208.28Y-52.07
X208.28Y-55.88
X208.28Y-62.23
X208.28Y-66.04
X208.28Y-69.85
X208.28Y-106.68
X208.28Y-110.49
X208.28Y-113.03
X208.28Y-123.19
X209.398Y-83.668
X209.448Y-78.689
X209.499Y-81.331
X210.82Y-34.29
X210.82Y-91.44
X212.09Y-106.68
X212.09Y-110.49
X213.36Y-29.21
X213.36Y-91.44
X213.36Y-115.57
X213.36Y-118.11
X213.36Y-123.19
X214.63Y-74.93
X214.63Y-81.28
X215.9Y-34.29
X215.9Y-46.99
X215.9Y-52.07
X215.9Y-57.15
X215.9Y-62.23
X215.9Y-67.31
X215.9Y-72.39
X215.9Y-82.55
X215.9Y-91.44
X218.44Y-29.21
X218.44Y-91.44
X218.44Y-123.19
X220.98Y-34.29
X220.98Y-41.91
X220.98Y-46.99
X220.98Y-52.07
X220.98Y-57.15
X220.98Y-62.23
X220.98Y-67.31
X220.98Y-72.39
X220.98Y-82.55
X220.98Y-91.44
X223.52Y-29.21
X223.52Y-85.09
X223.52Y-87.63
X223.52Y-91.44
X223.52Y-123.19
X226.06Y-34.29
X226.06Y-91.44
X228.6Y-29.21
X228.6Y-68.58
X228.6Y-91.44
X228.6Y-105.41
X228.6Y-107.95
X228.6Y-110.49
X228.6Y-123.19
X229.87Y-66.04
X229.87Y-85.09
X229.87Y-87.63
X231.14Y-34.29
X231.14Y-53.34
X231.14Y-55.88
X231.14Y-58.42
X231.14Y-64.77
X231.14Y-69.85
X231.14Y-76.2
X231.14Y-78.74
X231.14Y-91.44
X231.14Y-110.49
X233.68Y-29.21
X233.68Y-36.83
X233.68Y-41.91
X233.68Y-49.53
X233.68Y-53.34
X233.68Y-91.44
X233.68Y-110.49
X233.68Y-123.19
X234.95Y-80.01
X234.95Y-92.71
X234.95Y-95.25
X234.95Y-97.79
X234.95Y-100.33
X236.22Y-102.87
X236.22Y-107.95
X236.22Y-110.49
X236.474Y-71.374
X236.601Y-66.294
X236.601Y-69.088
X238.76Y-29.21
X238.76Y-44.45
X238.76Y-46.99
X238.76Y-58.42
X238.76Y-62.23
X238.76Y-85.09
X238.76Y-123.19
X239.014Y-71.374
X241.3Y-60.96
X241.3Y-74.93
X241.808Y-71.374
X243.84Y-85.09
X243.84Y-123.19
X244.856Y-71.374
X248.285Y-71.374
X248.92Y-29.21
X248.92Y-36.83
X248.92Y-44.45
X248.92Y-49.53
X248.92Y-62.23
X248.92Y-67.31
X248.92Y-123.19
X249.301Y-84.455
X249.428Y-98.933
X251.46Y-36.83
X251.46Y-44.45
X251.46Y-49.53
X251.46Y-62.23
X251.46Y-67.31
X251.46Y-74.93
X251.46Y-77.47
X251.46Y-80.01
X251.46Y-90.17
X251.46Y-120.65
X254.0Y-29.21
X254.0Y-120.65
X254.0Y-123.19
X256.54Y-52.07
X256.54Y-115.57
X256.54Y-118.11
X256.54Y-120.65
X259.08Y-29.21
X259.08Y-123.19
X261.62Y-31.75
X261.62Y-36.83
X261.62Y-44.45
X261.62Y-49.53
X261.62Y-54.61
X261.62Y-59.69
X261.62Y-64.77
X261.62Y-69.85
X261.62Y-74.93
X261.62Y-80.01
X261.62Y-85.09
X261.62Y-90.17
X261.62Y-95.25
X261.62Y-100.33
X261.62Y-105.41
X261.62Y-110.49
X261.62Y-115.57
X261.62Y-120.65
T2
X188.163Y-45.771
T3
X211.328Y-39.37
X211.328Y-41.91
X211.328Y-44.45
X211.328Y-46.99
X211.328Y-49.53
X211.328Y-52.07
X211.328Y-54.61
X211.328Y-57.15
X211.328Y-59.69
X211.328Y-62.23
X211.328Y-64.77
X211.328Y-67.31
X211.328Y-69.85
X211.328Y-72.39
X211.328Y-74.93
X211.328Y-77.47
X211.328Y-80.01
X211.328Y-82.55
X211.328Y-85.09
X211.328Y-87.63
X226.568Y-39.37
X226.568Y-41.91
X226.568Y-44.45
X226.568Y-46.99
X226.568Y-49.53
X226.568Y-52.07
X226.568Y-54.61
X226.568Y-57.15
X226.568Y-59.69
X226.568Y-62.23
X226.568Y-64.77
X226.568Y-67.31
X226.568Y-69.85
X226.568Y-72.39
X226.568Y-74.93
X226.568Y-77.47
X226.568Y-80.01
X226.568Y-82.55
X226.568Y-85.09
X226.568Y-87.63
T4
X175.766Y-79.496
X175.766Y-119.126
X193.036Y-79.496
X193.036Y-119.126
X197.701Y-66.331
X197.701Y-68.871
X197.701Y-71.411
X197.701Y-73.951
X200.242Y-66.331
X200.242Y-68.871
X200.242Y-71.411
X200.242Y-73.951
X210.25Y-108.436
X210.36Y-94.706
X231.79Y-94.276
X231.79Y-108.126
T5
X192.506Y-44.476
X192.506Y-47.016
X192.506Y-49.556
T6
X173.867Y-45.748
X173.867Y-49.248
X218.44Y-117.094
X221.94Y-117.094
X243.586Y-31.044
X243.586Y-34.544
X243.586Y-38.044
X243.586Y-45.522
X243.586Y-49.022
X243.586Y-52.522
X243.586Y-60.706
X243.586Y-64.206
X243.586Y-67.706
X243.586Y-75.184
X243.586Y-78.684
X243.586Y-82.184
X243.586Y-90.226
X243.586Y-93.726
X243.586Y-97.226
X256.54Y-42.01
X256.54Y-45.51
X256.54Y-49.01
X256.54Y-56.73
X256.54Y-60.23
X256.54Y-63.73
X256.54Y-71.47
X256.54Y-74.97
X256.54Y-78.47
X256.54Y-86.21
X256.54Y-89.71
X256.54Y-93.21
X256.54Y-100.95
X256.54Y-104.45
X256.54Y-107.95
T4
X246.984Y-119.051G85X246.984Y-117.051
G05
X250.984Y-113.352G85X248.984Y-113.352
G05
X252.984Y-119.051G85X252.984Y-117.051
G05
M30
